<svg data-v-fde0c5aa="" xmlns="http://www.w3.org/2000/svg" viewBox="0 0 300 300" class="iconLeftSlogan"><!----><defs data-v-fde0c5aa=""><!----></defs><rect data-v-fde0c5aa="" fill="#343a40" x="0" y="0" width="300px" height="300px" class="logo-background-square"></rect><defs data-v-fde0c5aa=""><!----></defs><g data-v-fde0c5aa="" id="5cb713c0-7fde-486b-bc4c-312ac620c834" fill="#FFFFFF" transform="matrix(2.0570622258647107,0,0,2.0570622258647107,101.48278499257142,118.4522733802439)"><path d="M4.98 4.19L4.98 4.19Q5.84 4.19 6.49 4.54L6.49 4.54L6.49 4.54Q7.14 4.90 7.50 5.54L7.50 5.54L7.50 5.54Q7.85 6.19 7.85 7.03L7.85 7.03L7.85 7.03Q7.85 7.87 7.49 8.50L7.49 8.50L7.49 8.50Q7.13 9.13 6.46 9.48L6.46 9.48L6.46 9.48Q5.80 9.83 4.93 9.83L4.93 9.83L2.48 9.83L2.48 9.83Q2.41 9.83 2.41 9.90L2.41 9.90L2.41 13.79L2.41 13.79Q2.41 13.89 2.35 13.94L2.35 13.94L2.35 13.94Q2.30 14 2.20 14L2.20 14L1.27 14L1.27 14Q1.18 14 1.12 13.94L1.12 13.94L1.12 13.94Q1.06 13.89 1.06 13.79L1.06 13.79L1.06 4.40L1.06 4.40Q1.06 4.30 1.12 4.24L1.12 4.24L1.12 4.24Q1.18 4.19 1.27 4.19L1.27 4.19L4.98 4.19ZM4.80 8.74L4.80 8.74Q5.57 8.74 6.04 8.27L6.04 8.27L6.04 8.27Q6.51 7.81 6.51 7.06L6.51 7.06L6.51 7.06Q6.51 6.29 6.04 5.82L6.04 5.82L6.04 5.82Q5.57 5.35 4.80 5.35L4.80 5.35L2.48 5.35L2.48 5.35Q2.41 5.35 2.41 5.42L2.41 5.42L2.41 8.67L2.41 8.67Q2.41 8.74 2.48 8.74L2.48 8.74L4.80 8.74ZM12.40 6.80L12.40 6.80Q12.82 6.80 13.16 6.96L13.16 6.96L13.16 6.96Q13.31 7.04 13.27 7.22L13.27 7.22L13.08 8.13L13.08 8.13Q13.06 8.27 12.94 8.27L12.94 8.27L12.94 8.27Q12.87 8.27 12.82 8.26L12.82 8.26L12.82 8.26Q12.61 8.19 12.35 8.19L12.35 8.19L12.35 8.19Q12.21 8.19 12.14 8.20L12.14 8.20L12.14 8.20Q11.48 8.23 11.05 8.66L11.05 8.66L11.05 8.66Q10.63 9.09 10.63 9.77L10.63 9.77L10.63 13.79L10.63 13.79Q10.63 13.89 10.57 13.94L10.57 13.94L10.57 13.94Q10.51 14 10.42 14L10.42 14L9.49 14L9.49 14Q9.39 14 9.34 13.94L9.34 13.94L9.34 13.94Q9.28 13.89 9.28 13.79L9.28 13.79L9.28 7.08L9.28 7.08Q9.28 6.99 9.34 6.93L9.34 6.93L9.34 6.93Q9.39 6.87 9.49 6.87L9.49 6.87L10.42 6.87L10.42 6.87Q10.51 6.87 10.57 6.93L10.57 6.93L10.57 6.93Q10.63 6.99 10.63 7.08L10.63 7.08L10.63 7.73L10.63 7.73Q10.63 7.78 10.65 7.79L10.65 7.79L10.65 7.79Q10.67 7.80 10.70 7.76L10.70 7.76L10.70 7.76Q11.33 6.80 12.40 6.80L12.40 6.80ZM17.40 14.11L17.40 14.11Q16.35 14.11 15.59 13.59L15.59 13.59L15.59 13.59Q14.83 13.06 14.52 12.12L14.52 12.12L14.52 12.12Q14.27 11.37 14.27 10.42L14.27 10.42L14.27 10.42Q14.27 9.42 14.50 8.74L14.50 8.74L14.50 8.74Q14.81 7.81 15.58 7.29L15.58 7.29L15.58 7.29Q16.35 6.76 17.42 6.76L17.42 6.76L17.42 6.76Q18.42 6.76 19.17 7.29L19.17 7.29L19.17 7.29Q19.92 7.81 20.24 8.72L20.24 8.72L20.24 8.72Q20.50 9.44 20.50 10.40L20.50 10.40L20.50 10.40Q20.50 11.38 20.24 12.12L20.24 12.12L20.24 12.12Q19.94 13.06 19.18 13.59L19.18 13.59L19.18 13.59Q18.42 14.11 17.40 14.11L17.40 14.11ZM17.40 12.95L17.40 12.95Q17.96 12.95 18.38 12.63L18.38 12.63L18.38 12.63Q18.80 12.32 18.98 11.75L18.98 11.75L18.98 11.75Q19.14 11.21 19.14 10.43L19.14 10.43L19.14 10.43Q19.14 9.65 19.00 9.13L19.00 9.13L19.00 9.13Q18.82 8.55 18.40 8.24L18.40 8.24L18.40 8.24Q17.98 7.92 17.37 7.92L17.37 7.92L17.37 7.92Q16.80 7.92 16.38 8.24L16.38 8.24L16.38 8.24Q15.96 8.55 15.78 9.13L15.78 9.13L15.78 9.13Q15.62 9.62 15.62 10.43L15.62 10.43L15.62 10.43Q15.62 11.24 15.78 11.75L15.78 11.75L15.78 11.75Q15.95 12.32 16.37 12.63L16.37 12.63L16.37 12.63Q16.80 12.95 17.40 12.95L17.40 12.95ZM22.97 5.84L22.97 5.84Q22.57 5.84 22.32 5.59L22.32 5.59L22.32 5.59Q22.06 5.33 22.06 4.96L22.06 4.96L22.06 4.96Q22.06 4.58 22.33 4.33L22.33 4.33L22.33 4.33Q22.60 4.07 22.97 4.07L22.97 4.07L22.97 4.07Q23.35 4.07 23.63 4.33L23.63 4.33L23.63 4.33Q23.90 4.58 23.90 4.96L23.90 4.96L23.90 4.96Q23.90 5.33 23.65 5.59L23.65 5.59L23.65 5.59Q23.39 5.84 22.97 5.84L22.97 5.84ZM20.86 16.90L20.86 16.90Q20.65 16.90 20.65 16.69L20.65 16.69L20.65 15.96L20.65 15.96Q20.65 15.75 20.86 15.75L20.86 15.75L20.86 15.75Q21.62 15.74 21.96 15.41L21.96 15.41L21.96 15.41Q22.30 15.09 22.30 14.41L22.30 14.41L22.30 7.08L22.30 7.08Q22.30 6.99 22.36 6.93L22.36 6.93L22.36 6.93Q22.41 6.87 22.51 6.87L22.51 6.87L23.44 6.87L23.44 6.87Q23.53 6.87 23.59 6.93L23.59 6.93L23.59 6.93Q23.65 6.99 23.65 7.08L23.65 7.08L23.65 14.39L23.65 14.39Q23.65 15.30 23.37 15.85L23.37 15.85L23.37 15.85Q23.10 16.39 22.50 16.65L22.50 16.65L22.50 16.65Q21.90 16.90 20.86 16.90L20.86 16.90ZM28.60 12.96L28.60 12.96Q29.74 12.95 30.23 12.08L30.23 12.08L30.23 12.08Q30.30 11.96 30.38 11.96L30.38 11.96L30.38 11.96Q30.45 11.96 30.51 12.00L30.51 12.00L31.08 12.35L31.08 12.35Q31.19 12.42 31.19 12.53L31.19 12.53L31.16 12.64L31.16 12.64Q30.79 13.33 30.09 13.72L30.09 13.72L30.09 13.72Q29.40 14.11 28.48 14.11L28.48 14.11L28.48 14.11Q27.48 14.11 26.80 13.67L26.80 13.67L26.80 13.67Q26.11 13.23 25.76 12.40L25.76 12.40L25.76 12.40Q25.41 11.55 25.41 10.40L25.41 10.40L25.41 10.40Q25.41 9.38 25.56 8.85L25.56 8.85L25.56 8.85Q25.82 7.88 26.57 7.32L26.57 7.32L26.57 7.32Q27.33 6.76 28.41 6.76L28.41 6.76L28.41 6.76Q29.74 6.76 30.44 7.46L30.44 7.46L30.44 7.46Q31.14 8.15 31.35 9.46L31.35 9.46L31.35 9.46Q31.42 9.98 31.44 10.72L31.44 10.72L31.44 10.72Q31.44 10.93 31.23 10.93L31.23 10.93L26.81 10.93L26.81 10.93Q26.74 10.93 26.74 11.00L26.74 11.00L26.74 11.00Q26.77 11.54 26.84 11.76L26.84 11.76L26.84 11.76Q26.99 12.32 27.45 12.64L27.45 12.64L27.45 12.64Q27.92 12.96 28.60 12.96L28.60 12.96ZM28.41 7.92L28.41 7.92Q27.79 7.92 27.40 8.22L27.40 8.22L27.40 8.22Q27.02 8.51 26.88 9.03L26.88 9.03L26.88 9.03Q26.78 9.34 26.75 9.81L26.75 9.81L26.75 9.81Q26.75 9.88 26.82 9.88L26.82 9.88L30.00 9.88L30.00 9.88Q30.07 9.88 30.07 9.81L30.07 9.81L30.07 9.81Q30.04 9.35 29.99 9.13L29.99 9.13L29.99 9.13Q29.85 8.58 29.43 8.25L29.43 8.25L29.43 8.25Q29.02 7.92 28.41 7.92L28.41 7.92ZM35.99 14.11L35.99 14.11Q34.93 14.11 34.17 13.57L34.17 13.57L34.17 13.57Q33.42 13.03 33.14 12.11L33.14 12.11L33.14 12.11Q32.93 11.47 32.93 10.42L32.93 10.42L32.93 10.42Q32.93 9.45 33.14 8.72L33.14 8.72L33.14 8.72Q33.42 7.83 34.18 7.29L34.18 7.29L34.18 7.29Q34.94 6.76 35.99 6.76L35.99 6.76L35.99 6.76Q37.04 6.76 37.83 7.29L37.83 7.29L37.83 7.29Q38.61 7.83 38.85 8.64L38.85 8.64L38.85 8.64Q38.92 8.82 38.95 9.03L38.95 9.03L38.95 9.06L38.95 9.06Q38.95 9.23 38.77 9.25L38.77 9.25L37.86 9.38L37.81 9.38L37.81 9.38Q37.66 9.38 37.62 9.23L37.62 9.23L37.58 9.04L37.58 9.04Q37.46 8.57 37.03 8.25L37.03 8.25L37.03 8.25Q36.60 7.92 35.98 7.92L35.98 7.92L35.98 7.92Q35.38 7.92 34.96 8.25L34.96 8.25L34.96 8.25Q34.54 8.57 34.41 9.10L34.41 9.10L34.41 9.10Q34.29 9.60 34.29 10.43L34.29 10.43L34.29 10.43Q34.29 11.24 34.41 11.75L34.41 11.75L34.41 11.75Q34.55 12.31 34.97 12.63L34.97 12.63L34.97 12.63Q35.38 12.95 35.98 12.95L35.98 12.95L35.98 12.95Q36.58 12.95 37.02 12.63L37.02 12.63L37.02 12.63Q37.45 12.32 37.58 11.83L37.58 11.83L37.59 11.77L37.59 11.76L37.59 11.76Q37.60 11.69 37.67 11.63L37.67 11.63L37.67 11.63Q37.74 11.56 37.83 11.58L37.83 11.58L38.74 11.73L38.74 11.73Q38.93 11.77 38.92 11.96L38.92 11.96L38.92 11.96Q38.91 12.01 38.85 12.22L38.85 12.22L38.85 12.22Q38.61 13.08 37.83 13.59L37.83 13.59L37.83 13.59Q37.04 14.11 35.99 14.11L35.99 14.11ZM44.02 7.77L44.02 7.77Q44.02 7.87 43.96 7.92L43.96 7.92L43.96 7.92Q43.90 7.98 43.81 7.98L43.81 7.98L42.38 7.98L42.38 7.98Q42.31 7.98 42.31 8.05L42.31 8.05L42.31 11.70L42.31 11.70Q42.31 12.31 42.57 12.56L42.57 12.56L42.57 12.56Q42.83 12.81 43.40 12.81L43.40 12.81L43.74 12.81L43.74 12.81Q43.83 12.81 43.89 12.87L43.89 12.87L43.89 12.87Q43.95 12.92 43.95 13.02L43.95 13.02L43.95 13.75L43.95 13.75Q43.95 13.94 43.74 13.97L43.74 13.97L43.16 13.99L43.16 13.99Q42.08 13.99 41.55 13.61L41.55 13.61L41.55 13.61Q41.02 13.23 41.02 12.19L41.02 12.19L41.02 8.05L41.02 8.05Q41.02 7.98 40.95 7.98L40.95 7.98L40.18 7.98L40.18 7.98Q40.08 7.98 40.03 7.92L40.03 7.92L40.03 7.92Q39.97 7.87 39.97 7.77L39.97 7.77L39.97 7.08L39.97 7.08Q39.97 6.99 40.03 6.93L40.03 6.93L40.03 6.93Q40.08 6.87 40.18 6.87L40.18 6.87L40.95 6.87L40.95 6.87Q41.02 6.87 41.02 6.80L41.02 6.80L41.02 5.24L41.02 5.24Q41.02 5.14 41.08 5.08L41.08 5.08L41.08 5.08Q41.13 5.03 41.23 5.03L41.23 5.03L42.10 5.03L42.10 5.03Q42.20 5.03 42.25 5.08L42.25 5.08L42.25 5.08Q42.31 5.14 42.31 5.24L42.31 5.24L42.31 6.80L42.31 6.80Q42.31 6.87 42.38 6.87L42.38 6.87L43.81 6.87L43.81 6.87Q43.90 6.87 43.96 6.93L43.96 6.93L43.96 6.93Q44.02 6.99 44.02 7.08L44.02 7.08L44.02 7.77ZM51.83 14.13L51.83 14.13Q50.81 14.13 50.02 13.71L50.02 13.71L50.02 13.71Q49.24 13.29 48.80 12.52L48.80 12.52L48.80 12.52Q48.37 11.76 48.37 10.77L48.37 10.77L48.37 7.43L48.37 7.43Q48.37 6.44 48.80 5.68L48.80 5.68L48.80 5.68Q49.24 4.93 50.02 4.51L50.02 4.51L50.02 4.51Q50.81 4.09 51.83 4.09L51.83 4.09L51.83 4.09Q52.86 4.09 53.65 4.51L53.65 4.51L53.65 4.51Q54.43 4.93 54.87 5.68L54.87 5.68L54.87 5.68Q55.30 6.44 55.30 7.43L55.30 7.43L55.30 10.77L55.30 10.77Q55.30 11.76 54.87 12.52L54.87 12.52L54.87 12.52Q54.43 13.29 53.65 13.71L53.65 13.71L53.65 13.71Q52.86 14.13 51.83 14.13L51.83 14.13ZM51.83 12.96L51.83 12.96Q52.78 12.96 53.37 12.38L53.37 12.38L53.37 12.38Q53.96 11.79 53.96 10.82L53.96 10.82L53.96 7.42L53.96 7.42Q53.96 6.44 53.37 5.85L53.37 5.85L53.37 5.85Q52.78 5.25 51.83 5.25L51.83 5.25L51.83 5.25Q50.88 5.25 50.30 5.85L50.30 5.85L50.30 5.85Q49.71 6.44 49.71 7.42L49.71 7.42L49.71 10.82L49.71 10.82Q49.71 11.79 50.30 12.38L50.30 12.38L50.30 12.38Q50.88 12.96 51.83 12.96L51.83 12.96ZM60.30 6.80L60.30 6.80Q60.72 6.80 61.05 6.96L61.05 6.96L61.05 6.96Q61.21 7.04 61.17 7.22L61.17 7.22L60.97 8.13L60.97 8.13Q60.96 8.27 60.83 8.27L60.83 8.27L60.83 8.27Q60.76 8.27 60.72 8.26L60.72 8.26L60.72 8.26Q60.51 8.19 60.24 8.19L60.24 8.19L60.24 8.19Q60.10 8.19 60.03 8.20L60.03 8.20L60.03 8.20Q59.37 8.23 58.95 8.66L58.95 8.66L58.95 8.66Q58.52 9.09 58.52 9.77L58.52 9.77L58.52 13.79L58.52 13.79Q58.52 13.89 58.46 13.94L58.46 13.94L58.46 13.94Q58.41 14 58.31 14L58.31 14L57.39 14L57.39 14Q57.29 14 57.23 13.94L57.23 13.94L57.23 13.94Q57.18 13.89 57.18 13.79L57.18 13.79L57.18 7.08L57.18 7.08Q57.18 6.99 57.23 6.93L57.23 6.93L57.23 6.93Q57.29 6.87 57.39 6.87L57.39 6.87L58.31 6.87L58.31 6.87Q58.41 6.87 58.46 6.93L58.46 6.93L58.46 6.93Q58.52 6.99 58.52 7.08L58.52 7.08L58.52 7.73L58.52 7.73Q58.52 7.78 58.54 7.79L58.54 7.79L58.54 7.79Q58.56 7.80 58.59 7.76L58.59 7.76L58.59 7.76Q59.22 6.80 60.30 6.80L60.30 6.80ZM68.12 8.72L68.12 8.72Q68.33 9.39 68.33 10.42L68.33 10.42L68.33 10.42Q68.33 11.51 68.08 12.21L68.08 12.21L68.08 12.21Q67.77 13.12 67.11 13.62L67.11 13.62L67.11 13.62Q66.44 14.11 65.44 14.11L65.44 14.11L65.44 14.11Q64.95 14.11 64.53 13.92L64.53 13.92L64.53 13.92Q64.12 13.73 63.81 13.38L63.81 13.38L63.81 13.38Q63.78 13.36 63.76 13.37L63.76 13.37L63.76 13.37Q63.73 13.38 63.73 13.43L63.73 13.43L63.73 13.79L63.73 13.79Q63.73 13.89 63.67 13.94L63.67 13.94L63.67 13.94Q63.62 14 63.52 14L63.52 14L62.59 14L62.59 14Q62.50 14 62.44 13.94L62.44 13.94L62.44 13.94Q62.38 13.89 62.38 13.79L62.38 13.79L62.38 4.41L62.38 4.41Q62.38 4.31 62.44 4.26L62.44 4.26L62.44 4.26Q62.50 4.20 62.59 4.20L62.59 4.20L63.52 4.20L63.52 4.20Q63.62 4.20 63.67 4.26L63.67 4.26L63.67 4.26Q63.73 4.31 63.73 4.41L63.73 4.41L63.73 7.45L63.73 7.45Q63.73 7.49 63.76 7.50L63.76 7.50L63.76 7.50Q63.78 7.50 63.81 7.48L63.81 7.48L63.81 7.48Q64.12 7.13 64.53 6.94L64.53 6.94L64.53 6.94Q64.95 6.76 65.44 6.76L65.44 6.76L65.44 6.76Q66.47 6.76 67.15 7.28L67.15 7.28L67.15 7.28Q67.83 7.80 68.12 8.72L68.12 8.72ZM66.64 12.18L66.64 12.18Q66.99 11.52 66.99 10.44L66.99 10.44L66.99 10.44Q66.99 9.30 66.54 8.60L66.54 8.60L66.54 8.60Q66.11 7.92 65.30 7.92L65.30 7.92L65.30 7.92Q64.51 7.92 64.11 8.64L64.11 8.64L64.11 8.64Q63.74 9.28 63.74 10.43L63.74 10.43L63.74 10.43Q63.74 11.58 64.08 12.19L64.08 12.19L64.08 12.19Q64.50 12.95 65.30 12.95L65.30 12.95L65.30 12.95Q66.23 12.95 66.64 12.18L66.64 12.18ZM70.81 5.81L70.81 5.81Q70.41 5.81 70.15 5.56L70.15 5.56L70.15 5.56Q69.89 5.32 69.89 4.93L69.89 4.93L69.89 4.93Q69.89 4.54 70.15 4.29L70.15 4.29L70.15 4.29Q70.41 4.05 70.81 4.05L70.81 4.05L70.81 4.05Q71.22 4.05 71.47 4.29L71.47 4.29L71.47 4.29Q71.72 4.54 71.72 4.93L71.72 4.93L71.72 4.93Q71.72 5.32 71.47 5.56L71.47 5.56L71.47 5.56Q71.22 5.81 70.81 5.81L70.81 5.81ZM70.35 14L70.35 14Q70.25 14 70.20 13.94L70.20 13.94L70.20 13.94Q70.14 13.89 70.14 13.79L70.14 13.79L70.14 7.08L70.14 7.08Q70.14 6.99 70.20 6.93L70.20 6.93L70.20 6.93Q70.25 6.87 70.35 6.87L70.35 6.87L71.27 6.87L71.27 6.87Q71.37 6.87 71.43 6.93L71.43 6.93L71.43 6.93Q71.48 6.99 71.48 7.08L71.48 7.08L71.48 13.79L71.48 13.79Q71.48 13.89 71.43 13.94L71.43 13.94L71.43 13.94Q71.37 14 71.27 14L71.27 14L70.35 14ZM77.06 7.77L77.06 7.77Q77.06 7.87 77 7.92L77 7.92L77 7.92Q76.94 7.98 76.85 7.98L76.85 7.98L75.42 7.98L75.42 7.98Q75.35 7.98 75.35 8.05L75.35 8.05L75.35 11.70L75.35 11.70Q75.35 12.31 75.61 12.56L75.61 12.56L75.61 12.56Q75.87 12.81 76.44 12.81L76.44 12.81L76.78 12.81L76.78 12.81Q76.87 12.81 76.93 12.87L76.93 12.87L76.93 12.87Q76.99 12.92 76.99 13.02L76.99 13.02L76.99 13.75L76.99 13.75Q76.99 13.94 76.78 13.97L76.78 13.97L76.20 13.99L76.20 13.99Q75.12 13.99 74.59 13.61L74.59 13.61L74.59 13.61Q74.06 13.23 74.06 12.19L74.06 12.19L74.06 8.05L74.06 8.05Q74.06 7.98 73.99 7.98L73.99 7.98L73.22 7.98L73.22 7.98Q73.12 7.98 73.07 7.92L73.07 7.92L73.07 7.92Q73.01 7.87 73.01 7.77L73.01 7.77L73.01 7.08L73.01 7.08Q73.01 6.99 73.07 6.93L73.07 6.93L73.07 6.93Q73.12 6.87 73.22 6.87L73.22 6.87L73.99 6.87L73.99 6.87Q74.06 6.87 74.06 6.80L74.06 6.80L74.06 5.24L74.06 5.24Q74.06 5.14 74.12 5.08L74.12 5.08L74.12 5.08Q74.17 5.03 74.27 5.03L74.27 5.03L75.14 5.03L75.14 5.03Q75.24 5.03 75.29 5.08L75.29 5.08L75.29 5.08Q75.35 5.14 75.35 5.24L75.35 5.24L75.35 6.80L75.35 6.80Q75.35 6.87 75.42 6.87L75.42 6.87L76.85 6.87L76.85 6.87Q76.94 6.87 77 6.93L77 6.93L77 6.93Q77.06 6.99 77.06 7.08L77.06 7.08L77.06 7.77Z"></path></g><defs data-v-fde0c5aa=""><!----></defs><g data-v-fde0c5aa="" id="57fbc3ee-feeb-4fc6-9bf7-bb26e070bb87" stroke="none" fill="#98D82C" transform="matrix(0.845065193588103,0,0,0.845065193588103,39.959360802496725,124.65140476075373)"><g><path d="M23.874 26.897c.019-.003.038-.002.058-.007.14-.033.275-.09.412-.139.08-.029.163-.048.24-.08.015-.008.03-.01.046-.017.022-.01.035-.028.055-.039a4.008 4.008 0 0 0 1.909-1.89c.019-.033.044-.059.06-.094.006-.015.008-.03.015-.044.035-.08.055-.168.085-.25.047-.135.103-.265.136-.402.003-.014-.001-.028 0-.042.068-.288.11-.585.11-.893 0-.566-.121-1.102-.333-1.59a.994.994 0 0 0 .037-.899.986.986 0 0 0-1.116-.537A3.967 3.967 0 0 0 23 19c-2.206 0-4 1.794-4 4 0 .991.376 1.888.975 2.587a.988.988 0 0 0 .537 1.117.997.997 0 0 0 .42.093c.169 0 .33-.052.476-.132A3.975 3.975 0 0 0 23 27c.3 0 .592-.04.874-.103M42 49c2.206 0 4-1.794 4-4 0-.842-.264-1.622-.71-2.267a.995.995 0 1 0-1.37-1.22A3.949 3.949 0 0 0 42 41a3.99 3.99 0 0 0-3.39 1.9c-.014.02-.035.032-.048.053-.058.098-.099.207-.149.31-.04.083-.084.162-.119.247-.011.027-.028.052-.038.08-.012.03-.007.062-.015.092A3.954 3.954 0 0 0 38 45c0 .392.074.764.18 1.122a.998.998 0 0 0 .793 1.606c.035 0 .071-.01.107-.013A3.977 3.977 0 0 0 42 49M39 4c0 .712.202 1.371.529 1.951.016.033.017.069.036.102.022.036.052.065.075.101.058.09.124.172.189.257.063.083.117.175.186.252.016.018.039.024.056.041a3.973 3.973 0 0 0 2.481 1.251c.038.007.071.028.11.031a4.167 4.167 0 0 0 .743-.007c.037-.003.067-.023.102-.03a3.984 3.984 0 0 0 2.348-1.155.999.999 0 0 0 .962-.434.993.993 0 0 0-.029-1.134C46.914 4.837 47 4.43 47 4c0-2.206-1.794-4-4-4a3.99 3.99 0 0 0-3.259 1.696.992.992 0 0 0-.68 1.704c-.03.197-.061.395-.061.6M30 34c2.206 0 4-1.794 4-4s-1.794-4-4-4-4 1.794-4 4 1.794 4 4 4M20.046 31.388a1 1 0 0 0 .96-1.037 8.232 8.232 0 0 1 .007-.849 1 1 0 1 0-1.995-.116 10.411 10.411 0 0 0-.01 1.04 1 1 0 0 0 .999.963l.039-.001M20.45 33.138a.999.999 0 0 0-.507 1.32c.142.319.297.627.467.928a.999.999 0 0 0 1.362.38.999.999 0 0 0 .38-1.362 9.31 9.31 0 0 1-.383-.76.998.998 0 0 0-1.32-.506M36.645 36.065c-.19.209-.393.41-.603.6a1 1 0 1 0 1.344 1.48c.258-.233.503-.477.737-.733a1 1 0 0 0-1.478-1.347M34.443 39.013a.999.999 0 0 0-1.288-.583 9.17 9.17 0 0 1-.808.26 1 1 0 1 0 .524 1.93c.337-.09.667-.197.99-.32a.999.999 0 0 0 .582-1.287M25.297 38.88c.307-.46.183-1.08-.276-1.387a8.897 8.897 0 0 1-.686-.505 1 1 0 1 0-1.26 1.553c.268.218.547.424.834.616a1 1 0 0 0 1.388-.276M37.007 24.357c.178.221.347.45.503.687a.998.998 0 0 0 1.386.282 1 1 0 0 0 .282-1.386 11.722 11.722 0 0 0-.612-.837 1 1 0 0 0-1.56 1.254M33.67 21.782c.259.115.512.244.757.383a.997.997 0 0 0 1.363-.375.998.998 0 0 0-.375-1.363 10.645 10.645 0 0 0-.93-.47 1 1 0 0 0-.815 1.825M29.855 40.05a.999.999 0 0 0-.878-1.107c-.285-.034-.566-.08-.841-.137a1 1 0 0 0-.412 1.957c.335.07.677.127 1.024.166a.999.999 0 0 0 1.107-.879M38.999 34.473a.998.998 0 0 0 1.29-.579c.123-.322.231-.652.322-.987a1 1 0 0 0-1.927-.532 9.532 9.532 0 0 1-.264.808 1 1 0 0 0 .579 1.29M29.475 21.014l.052-.001c.28-.015.565-.017.85-.005.54.046 1.019-.405 1.042-.957a1 1 0 0 0-.957-1.041 10.866 10.866 0 0 0-1.037.005 1 1 0 0 0 .05 1.999M40.934 28.783a11.76 11.76 0 0 0-.162-1.022 1 1 0 0 0-1.96.4c.058.276.102.558.134.843a1 1 0 0 0 1.988-.22M34.86 2.423c.311.054.62.113.927.179a.998.998 0 0 0 1.185-.772 1 1 0 0 0-.77-1.185c-.33-.07-.662-.133-.996-.193a1 1 0 0 0-.346 1.971M30.16 2c.315.002.63.009.944.021h.04a1 1 0 0 0 .038-1.999c-.336-.013-.673-.02-1.01-.022h-.007a1 1 0 0 0-.006 2M.988 29.31l.061.002a1 1 0 0 0 .997-.94c.02-.317.043-.632.071-.946a1 1 0 1 0-1.992-.18 27.44 27.44 0 0 0-.075 1.006.998.998 0 0 0 .938 1.058M1.512 24.45a1 1 0 0 0 1.199-.75c.07-.309.146-.613.227-.917a1 1 0 0 0-1.932-.516 30 30 0 0 0-.244.983 1 1 0 0 0 .75 1.2M1.286 34.19c.55-.062.944-.557.883-1.105a24.333 24.333 0 0 1-.088-.937 1 1 0 0 0-1.994.148c.025.34.056.677.094 1.011a1 1 0 0 0 1.105.883M20.548 3.575c.108 0 .218-.018.326-.055.297-.102.597-.2.899-.293a.998.998 0 0 0 .664-1.248.995.995 0 0 0-1.248-.664c-.326.1-.647.204-.967.315a.998.998 0 0 0 .326 1.945M4.756 42.128a26.69 26.69 0 0 1-.396-.86 1 1 0 1 0-1.831.805c.136.31.278.618.424.922a1.001 1.001 0 0 0 1.803-.867M3.075 37.714a24.341 24.341 0 0 1-.243-.911 1.006 1.006 0 0 0-1.213-.73 1.003 1.003 0 0 0-.729 1.214c.082.328.17.656.263.98a1 1 0 0 0 1.922-.553M25.286 2.38a.956.956 0 0 0 .16-.013c.312-.05.624-.095.94-.135.546-.072.932-.574.862-1.122a1.006 1.006 0 0 0-1.12-.863 33.3 33.3 0 0 0-.999.146.999.999 0 0 0 .157 1.987M12.003 8.258c.216 0 .435-.07.617-.214.249-.196.5-.39.755-.577a.999.999 0 0 0 .209-1.398.996.996 0 0 0-1.398-.21c-.271.2-.537.405-.802.613a1 1 0 0 0 .619 1.786M16.077 5.556a.99.99 0 0 0 .48-.124c.277-.151.555-.298.837-.44a1 1 0 0 0-.902-1.786 28.33 28.33 0 0 0-.897.474.997.997 0 0 0-.395 1.357.997.997 0 0 0 .877.519M2.849 19.747a1.003 1.003 0 0 0 1.308-.54c.12-.289.246-.575.376-.859a1 1 0 0 0-1.817-.836c-.141.305-.277.615-.407.927-.212.51.03 1.096.54 1.308M6.62 45.413a1.001 1.001 0 0 0-1.67 1.102c.187.282.378.561.574.837a1 1 0 0 0 1.396.234c.45-.32.554-.945.233-1.396-.182-.255-.36-.514-.533-.777M4.952 15.34a.999.999 0 0 0 1.381-.31c.168-.264.341-.528.517-.787a.997.997 0 0 0-.26-1.39.999.999 0 0 0-1.39.26c-.19.28-.375.56-.557.846a1.002 1.002 0 0 0 .31 1.38M9.185 11.271c.21-.234.425-.464.643-.69a1 1 0 0 0-1.441-1.386c-.235.243-.467.49-.692.742a1 1 0 0 0 1.49 1.335M48.727 50.817c-.233.211-.471.417-.712.62a1 1 0 0 0 1.287 1.53c.259-.217.514-.439.765-.666a1 1 0 1 0-1.34-1.484M44.97 53.668c-.268.169-.537.333-.81.493a1.001 1.001 0 0 0 1.014 1.725c.292-.172.579-.348.864-.529a.997.997 0 0 0 .31-1.378.997.997 0 0 0-1.378-.311M51.957 47.378c-.195.247-.395.489-.598.729a1 1 0 0 0 1.524 1.294c.219-.256.433-.518.642-.783a.998.998 0 0 0-.164-1.404.998.998 0 0 0-1.404.164M49.822 7.491A1.001 1.001 0 0 0 48.5 8.993c.237.208.47.42.7.636a.995.995 0 0 0 .684.272.999.999 0 0 0 .686-1.727 30.262 30.262 0 0 0-.748-.683M40.782 55.849c-.29.12-.585.238-.882.35a1.002 1.002 0 0 0-.58 1.29 1.002 1.002 0 0 0 1.29.582c.316-.12.63-.245.94-.374.51-.212.752-.798.54-1.308a1.003 1.003 0 0 0-1.308-.54M57.583 25.16c.054.308.103.62.146.932a1.001 1.001 0 0 0 1.128.852.999.999 0 0 0 .853-1.128 26.232 26.232 0 0 0-.158-1.005.996.996 0 0 0-1.158-.81.999.999 0 0 0-.811 1.158M58.777 33.741a.997.997 0 0 0-1.148.826 31.64 31.64 0 0 1-.168.93 1 1 0 1 0 1.961.39c.066-.332.126-.664.181-.998a1.001 1.001 0 0 0-.826-1.148M53.947 11.935c-.204-.27-.412-.535-.625-.796a.997.997 0 0 0-1.406-.146 1 1 0 0 0-.147 1.405c.198.245.392.492.582.745a1.001 1.001 0 0 0 1.596-1.208M59 28.857a1 1 0 0 0-1 1v.14c-.001.271-.005.542-.013.81-.015.552.42 1.013.972 1.03h.029a1 1 0 0 0 .999-.973c.008-.286.012-.572.013-.864v-.143a1 1 0 0 0-1-1M31.611 57.954c-.312.02-.626.031-.94.038a1 1 0 0 0 .023 2h.023a28.4 28.4 0 0 0 1.015-.042 1 1 0 0 0 .938-1.059 1.008 1.008 0 0 0-1.059-.937M55.924 43.055a.999.999 0 0 0-1.358.394c-.152.275-.308.548-.468.819a1 1 0 1 0 1.719 1.02c.17-.287.337-.58.5-.875a1 1 0 0 0-.393-1.358M57.749 38.52a.996.996 0 0 0-1.272.616c-.105.3-.212.597-.325.892a1 1 0 0 0 1.868.715c.12-.315.235-.63.345-.95a.999.999 0 0 0-.616-1.273M36.286 57.292c-.306.069-.614.135-.926.195a1 1 0 0 0 .383 1.963c.331-.064.661-.134.988-.209a1 1 0 0 0-.445-1.949M17.863 55.241a30.173 30.173 0 0 1-.843-.424.997.997 0 0 0-1.349.42.998.998 0 0 0 .42 1.35c.297.157.598.308.901.455a1.001 1.001 0 0 0 .871-1.801M54.871 17.132a.999.999 0 1 0 1.775-.92 26.35 26.35 0 0 0-.482-.892.999.999 0 1 0-1.742.982c.154.273.303.55.45.83M56.379 20.593c.106.298.207.597.304.898a.999.999 0 1 0 1.904-.61c-.103-.32-.21-.641-.323-.958a1 1 0 1 0-1.885.67M26.898 57.83a26.638 26.638 0 0 1-.937-.119.987.987 0 0 0-1.133.846.999.999 0 0 0 .845 1.132c.333.05.667.091 1.004.13a1 1 0 0 0 .221-1.988M13.044 52.285a1 1 0 0 0-1.213 1.59c.269.205.54.405.817.6a.996.996 0 0 0 1.394-.239.999.999 0 0 0-.24-1.393c-.256-.182-.51-.369-.758-.558M22.268 56.918a26.823 26.823 0 0 1-.901-.274 1 1 0 0 0-.618 1.902c.32.104.644.202.97.296a1 1 0 0 0 .549-1.924M9.543 49.12a1 1 0 0 0-1.461 1.365c.231.246.465.488.703.727a.999.999 0 1 0 1.414-1.414c-.222-.223-.441-.45-.656-.679M47.58 33.858c-.064.291-.137.58-.216.865a1.003 1.003 0 0 0 .966 1.265c.438 0 .842-.29.964-.735.087-.32.167-.643.238-.967a1 1 0 0 0-1.953-.428M47.424 37.614a.997.997 0 0 0-1.344.44c-.135.267-.277.53-.425.79a1.001 1.001 0 0 0 1.739.988c.163-.287.32-.579.469-.874a1 1 0 0 0-.44-1.344M45.888 19.538a1 1 0 0 0-.358 1.368c.15.26.296.521.436.787a.999.999 0 0 0 1.35.421c.489-.257.678-.86.422-1.35a23.826 23.826 0 0 0-.482-.868 1.002 1.002 0 0 0-1.368-.358M42.823 15.955a1 1 0 0 0-.012 1.414c.21.213.415.432.615.654.198.221.47.333.745.333a1 1 0 0 0 .745-1.667 22.032 22.032 0 0 0-.679-.722.998.998 0 0 0-1.414-.012M35.827 10.865a1.002 1.002 0 0 0-1.248.666c-.16.528.138 1.087.666 1.248.285.087.568.181.847.281a1 1 0 0 0 .679-1.881 20.067 20.067 0 0 0-.944-.314M41.454 14.816a1 1 0 0 0-.268-1.389c-.273-.184-.55-.363-.835-.536a1 1 0 1 0-1.039 1.71c.255.154.507.316.753.483a1 1 0 0 0 1.39-.268M49.218 24.451a1 1 0 0 0-1.922.555c.082.285.158.573.227.864a1 1 0 1 0 1.947-.457c-.076-.324-.16-.646-.252-.962M49.997 30.34L50 30c0-.22-.003-.437-.01-.655-.019-.553-.498-1.015-1.033-.966a1 1 0 0 0-.966 1.032c.006.197.01.392.01.589l-.004.304a1 1 0 0 0 .981 1.018h.02a1 1 0 0 0 1-.981M17.145 14.688a.999.999 0 1 0 1.29 1.53c.228-.192.46-.379.698-.557a1 1 0 1 0-1.21-1.595 20.97 20.97 0 0 0-.777.622M12.283 37.866a1 1 0 0 0 .933-1.359c-.108-.28-.209-.562-.304-.847a1.004 1.004 0 0 0-1.265-.634c-.524.175-.807.74-.634 1.265.105.314.218.626.336.934.154.398.533.641.934.641M17.69 43.12a1.002 1.002 0 0 0-1.415.043 1.002 1.002 0 0 0 .044 1.414c.242.227.488.447.739.662a.996.996 0 0 0 .65.24 1 1 0 0 0 .649-1.76c-.229-.195-.45-.394-.668-.599M14.835 39.687a1.002 1.002 0 0 0-1.382-.304c-.465.297-.6.915-.304 1.381.18.28.367.556.561.826a.996.996 0 0 0 .813.417 1.001 1.001 0 0 0 .812-1.583c-.173-.24-.34-.486-.5-.737M21.2 47.958a1 1 0 1 0 .885-1.793c-.269-.133-.532-.27-.793-.415a.999.999 0 1 0-.97 1.748c.287.16.58.314.878.46M35.719 49.158a1 1 0 0 0-.578-1.914c-.285.086-.572.164-.863.236a1 1 0 0 0 .482 1.942c.322-.08.643-.168.959-.264M30 50c.276 0 .552-.006.825-.018a.999.999 0 0 0 .958-1.04c-.022-.552-.525-.991-1.04-.958-.246.01-.494.016-.724.016l-.179-.001a1 1 0 1 0 0 2L30 50zM25.889 49.575a1 1 0 0 0 .408-1.957 19.54 19.54 0 0 1-.868-.205 1 1 0 1 0-.51 1.933c.32.085.644.162.97.23M21.304 11.991a1.001 1.001 0 0 0 .875 1.8c.268-.13.538-.255.813-.37a1 1 0 1 0-.78-1.843c-.305.13-.61.267-.908.413M10.977 30.36a.999.999 0 0 0-.926 1.068c.024.332.055.662.096.991a1 1 0 1 0 1.984-.243 20.003 20.003 0 0 1-.086-.89.988.988 0 0 0-1.068-.926M14.001 19.714a.996.996 0 0 0 1.396-.226c.174-.242.355-.478.541-.711a.999.999 0 1 0-1.561-1.25 20.32 20.32 0 0 0-.602.79 1 1 0 0 0 .226 1.397M26.003 10.402a.999.999 0 1 0 .4 1.96c.29-.06.584-.11.88-.157a1 1 0 0 0 .837-1.14.99.99 0 0 0-1.14-.837c-.33.05-.654.108-.977.174M30.942 10.023a.99.99 0 0 0-1.045.953 1 1 0 0 0 .953 1.044c.3.014.597.036.892.065l.097.003a1 1 0 0 0 .096-1.994 20.075 20.075 0 0 0-.993-.071M13.106 21.253a1 1 0 0 0-1.324.496c-.137.3-.267.606-.389.915a1 1 0 0 0 1.861.733c.11-.277.225-.55.348-.82a1 1 0 0 0-.496-1.324M11.025 28.582a1 1 0 0 0 1.119-.865c.038-.298.083-.593.135-.886a.999.999 0 0 0-.81-1.159.993.993 0 0 0-1.159.809c-.057.325-.108.653-.15.982a1 1 0 0 0 .865 1.119"></path></g></g><defs data-v-fde0c5aa=""><!----></defs><g data-v-fde0c5aa="" id="c195455a-b880-4704-996e-fcb6e32b2153" fill="#FFFFFF" transform="matrix(0.351745336298777,0,0,0.351745336298777,103.22007171390003,162.35484812194602)"><path d="M1.26 2.80L1.26 12.60L1.68 12.60L1.68 8.48L3.36 8.48C4.32 8.48 5.09 8.23 5.66 7.73C6.24 7.22 6.52 6.53 6.52 5.64C6.52 4.76 6.24 4.06 5.66 3.56C5.09 3.05 4.32 2.80 3.36 2.80ZM1.68 3.21L3.36 3.21C4.22 3.21 4.89 3.41 5.37 3.83C5.85 4.24 6.09 4.85 6.09 5.64C6.09 6.44 5.85 7.04 5.37 7.45C4.89 7.87 4.22 8.08 3.36 8.08L1.68 8.08ZM15.41 2.80L15.41 9.24C15.41 10.29 15.70 11.13 16.27 11.77C16.84 12.42 17.59 12.74 18.54 12.74C19.48 12.74 20.23 12.42 20.80 11.77C21.37 11.13 21.66 10.29 21.66 9.24L21.66 2.80L21.24 2.80L21.24 9.24C21.24 10.17 20.98 10.92 20.48 11.47C19.97 12.02 19.32 12.29 18.54 12.29C17.75 12.29 17.11 12.02 16.60 11.47C16.09 10.92 15.83 10.17 15.83 9.24L15.83 2.80ZM31.11 2.80L31.11 12.60L35.59 12.60L35.59 12.19L31.53 12.19L31.53 2.80ZM44.13 2.80L44.13 12.60L48.61 12.60L48.61 12.19L44.55 12.19L44.55 2.80ZM67.37 3.21L69.89 3.21L69.89 12.60L70.31 12.60L70.31 3.21L72.83 3.21L72.83 2.80L67.37 2.80ZM80.67 7.70C80.67 6.38 81.07 5.29 81.89 4.41C82.70 3.53 83.72 3.09 84.97 3.09C86.21 3.09 87.23 3.53 88.05 4.41C88.86 5.29 89.26 6.38 89.26 7.70C89.26 9.02 88.86 10.11 88.05 10.99C87.23 11.87 86.21 12.31 84.97 12.31C83.72 12.31 82.70 11.87 81.89 10.99C81.07 10.11 80.67 9.02 80.67 7.70ZM80.25 7.70C80.25 9.16 80.69 10.36 81.59 11.30C82.48 12.24 83.60 12.71 84.97 12.71C86.33 12.71 87.46 12.24 88.35 11.30C89.24 10.36 89.68 9.16 89.68 7.70C89.68 6.24 89.24 5.04 88.35 4.10C87.46 3.16 86.33 2.69 84.97 2.69C83.60 2.69 82.48 3.16 81.59 4.10C80.69 5.04 80.25 6.24 80.25 7.70ZM107.32 7.63L103.26 7.63L103.26 8.11L106.85 8.11C106.76 9.32 106.37 10.32 105.66 11.09C104.95 11.87 104.01 12.26 102.84 12.26C101.56 12.26 100.52 11.82 99.72 10.94C98.93 10.06 98.53 8.98 98.53 7.70C98.53 6.40 98.94 5.32 99.74 4.45C100.55 3.57 101.58 3.14 102.84 3.14C103.59 3.14 104.28 3.31 104.92 3.65C105.56 4.00 106.07 4.47 106.46 5.05L106.85 4.75C106.41 4.11 105.85 3.61 105.17 3.24C104.49 2.87 103.71 2.69 102.84 2.69C101.49 2.69 100.36 3.17 99.45 4.13C98.54 5.09 98.08 6.28 98.08 7.70C98.08 9.12 98.54 10.31 99.45 11.27C100.36 12.23 101.49 12.71 102.84 12.71C104.22 12.71 105.31 12.22 106.11 11.23C106.92 10.25 107.32 9.05 107.32 7.63ZM116.77 7.48L121.11 7.48L121.11 7.08L116.77 7.08L116.77 3.21L121.39 3.21L121.39 2.80L116.35 2.80L116.35 12.60L121.39 12.60L121.39 12.19L116.77 12.19ZM129.79 3.21L132.31 3.21L132.31 12.60L132.73 12.60L132.73 3.21L135.25 3.21L135.25 2.80L129.79 2.80ZM143.79 2.80L143.79 12.60L144.21 12.60L144.21 7.62L150.44 7.62L150.44 12.60L150.86 12.60L150.86 2.80L150.44 2.80L150.44 7.18L144.21 7.18L144.21 2.80ZM160.80 7.48L165.14 7.48L165.14 7.08L160.80 7.08L160.80 3.21L165.42 3.21L165.42 2.80L160.38 2.80L160.38 12.60L165.42 12.60L165.42 12.19L160.80 12.19ZM175.22 2.80ZM174.80 2.80L174.80 12.60L175.22 12.60L175.22 8.48L176.78 8.48L179.90 12.60L180.45 12.60L177.25 8.47C178.15 8.41 178.87 8.15 179.40 7.67C179.94 7.20 180.21 6.52 180.21 5.64C180.21 4.71 179.90 4.00 179.30 3.52C178.69 3.04 177.89 2.80 176.90 2.80ZM175.22 3.21L176.90 3.21C177.77 3.21 178.47 3.41 178.99 3.83C179.51 4.24 179.77 4.85 179.77 5.64C179.77 6.44 179.51 7.04 178.99 7.45C178.47 7.87 177.77 8.08 176.90 8.08L175.22 8.08ZM202.75 11.69L199.51 2.80L199.07 2.80L202.78 12.95L205.72 3.79L208.66 12.95L212.37 2.80L211.92 2.80L208.68 11.69L205.72 2.45ZM220.91 2.80L220.91 12.60L221.33 12.60L221.33 7.62L227.56 7.62L227.56 12.60L227.98 12.60L227.98 2.80L227.56 2.80L227.56 7.18L221.33 7.18L221.33 2.80ZM240.72 2.45L236.45 12.60L236.94 12.60L238.21 9.52L243.22 9.52L244.50 12.60L244.99 12.60ZM240.72 3.50L243.03 9.07L238.41 9.07ZM251.36 3.21L253.88 3.21L253.88 12.60L254.30 12.60L254.30 3.21L256.82 3.21L256.82 2.80L251.36 2.80ZM284.80 3.86L285.66 12.60L286.08 12.60L285.03 2.45L281.11 10.70L277.19 2.45L276.14 12.60L276.56 12.60L277.41 3.86L281.11 11.69ZM298.40 2.45L294.13 12.60L294.62 12.60L295.89 9.52L300.90 9.52L302.18 12.60L302.67 12.60ZM298.40 3.50L300.71 9.07L296.09 9.07ZM309.04 3.21L311.56 3.21L311.56 12.60L311.98 12.60L311.98 3.21L314.50 3.21L314.50 2.80L309.04 2.80ZM322.62 3.21L325.14 3.21L325.14 12.60L325.56 12.60L325.56 3.21L328.08 3.21L328.08 2.80L322.62 2.80ZM337.04 7.48L341.38 7.48L341.38 7.08L337.04 7.08L337.04 3.21L341.66 3.21L341.66 2.80L336.62 2.80L336.62 12.60L341.66 12.60L341.66 12.19L337.04 12.19ZM351.46 2.80ZM351.04 2.80L351.04 12.60L351.46 12.60L351.46 8.48L353.01 8.48L356.13 12.60L356.68 12.60L353.49 8.47C354.38 8.41 355.10 8.15 355.63 7.67C356.17 7.20 356.44 6.52 356.44 5.64C356.44 4.71 356.14 4.00 355.53 3.52C354.92 3.04 354.13 2.80 353.14 2.80ZM351.46 3.21L353.14 3.21C354.00 3.21 354.70 3.41 355.22 3.83C355.74 4.24 356.01 4.85 356.01 5.64C356.01 6.44 355.74 7.04 355.22 7.45C354.70 7.87 354.00 8.08 353.14 8.08L351.46 8.08ZM364.76 9.74L364.38 9.90C365.00 11.77 366.05 12.71 367.53 12.71C368.44 12.71 369.13 12.45 369.60 11.93C370.07 11.41 370.30 10.77 370.30 10.01C370.30 9.66 370.24 9.35 370.12 9.06C370.01 8.78 369.88 8.55 369.73 8.37C369.59 8.19 369.39 8.02 369.12 7.86C368.86 7.70 368.65 7.58 368.49 7.50C368.32 7.43 368.10 7.34 367.82 7.22C367.78 7.21 367.67 7.16 367.47 7.08C367.28 7.01 367.15 6.96 367.11 6.94C367.06 6.91 366.95 6.87 366.79 6.80C366.62 6.73 366.51 6.67 366.46 6.64C366.41 6.60 366.31 6.54 366.18 6.45C366.05 6.37 365.96 6.30 365.92 6.24C365.87 6.18 365.81 6.10 365.72 6.00C365.64 5.90 365.58 5.80 365.55 5.70C365.51 5.61 365.48 5.50 365.46 5.38C365.43 5.25 365.41 5.12 365.41 4.98C365.41 4.41 365.61 3.95 366.01 3.62C366.41 3.29 366.90 3.12 367.49 3.12C368.62 3.12 369.40 3.77 369.84 5.07L370.24 4.90C370.04 4.23 369.70 3.69 369.24 3.29C368.77 2.89 368.19 2.69 367.50 2.69C366.81 2.69 366.21 2.90 365.70 3.33C365.19 3.76 364.94 4.33 364.94 5.04C364.94 5.39 365.01 5.71 365.15 5.99C365.30 6.27 365.51 6.51 365.80 6.71C366.08 6.91 366.34 7.07 366.57 7.17C366.80 7.28 367.09 7.41 367.46 7.55C367.74 7.65 367.93 7.72 368.03 7.77C368.13 7.82 368.31 7.90 368.55 8.02C368.79 8.13 368.97 8.24 369.07 8.34C369.18 8.45 369.31 8.58 369.45 8.75C369.60 8.92 369.70 9.11 369.75 9.32C369.81 9.54 369.84 9.78 369.84 10.05C369.84 10.72 369.65 11.27 369.27 11.68C368.89 12.09 368.33 12.29 367.57 12.29C366.34 12.29 365.40 11.44 364.76 9.74ZM398.78 3.86L399.63 12.60L400.05 12.60L399.00 2.45L395.08 10.70L391.16 2.45L390.11 12.60L390.53 12.60L391.38 3.86L395.08 11.69ZM409.01 7.70C409.01 6.38 409.42 5.29 410.23 4.41C411.04 3.53 412.07 3.09 413.31 3.09C414.55 3.09 415.58 3.53 416.39 4.41C417.20 5.29 417.61 6.38 417.61 7.70C417.61 9.02 417.20 10.11 416.39 10.99C415.58 11.87 414.55 12.31 413.31 12.31C412.07 12.31 411.04 11.87 410.23 10.99C409.42 10.11 409.01 9.02 409.01 7.70ZM408.59 7.70C408.59 9.16 409.04 10.36 409.93 11.30C410.82 12.24 411.95 12.71 413.31 12.71C414.67 12.71 415.80 12.24 416.69 11.30C417.58 10.36 418.03 9.16 418.03 7.70C418.03 6.24 417.58 5.04 416.69 4.10C415.80 3.16 414.67 2.69 413.31 2.69C411.95 2.69 410.82 3.16 409.93 4.10C409.04 5.04 408.59 6.24 408.59 7.70ZM426.66 9.74L426.29 9.90C426.91 11.77 427.96 12.71 429.44 12.71C430.35 12.71 431.04 12.45 431.51 11.93C431.97 11.41 432.21 10.77 432.21 10.01C432.21 9.66 432.15 9.35 432.03 9.06C431.92 8.78 431.79 8.55 431.64 8.37C431.50 8.19 431.29 8.02 431.03 7.86C430.77 7.70 430.56 7.58 430.39 7.50C430.23 7.43 430.01 7.34 429.73 7.22C429.69 7.21 429.58 7.16 429.38 7.08C429.18 7.01 429.06 6.96 429.02 6.94C428.97 6.91 428.86 6.87 428.69 6.80C428.53 6.73 428.42 6.67 428.36 6.64C428.31 6.60 428.22 6.54 428.09 6.45C427.96 6.37 427.87 6.30 427.83 6.24C427.78 6.18 427.71 6.10 427.63 6.00C427.55 5.90 427.49 5.80 427.45 5.70C427.42 5.61 427.39 5.50 427.36 5.38C427.34 5.25 427.32 5.12 427.32 4.98C427.32 4.41 427.52 3.95 427.92 3.62C428.31 3.29 428.81 3.12 429.39 3.12C430.52 3.12 431.31 3.77 431.75 5.07L432.15 4.90C431.95 4.23 431.61 3.69 431.14 3.29C430.68 2.89 430.10 2.69 429.41 2.69C428.72 2.69 428.12 2.90 427.61 3.33C427.10 3.76 426.85 4.33 426.85 5.04C426.85 5.39 426.92 5.71 427.06 5.99C427.21 6.27 427.42 6.51 427.71 6.71C427.99 6.91 428.25 7.07 428.48 7.17C428.71 7.28 429.00 7.41 429.37 7.55C429.65 7.65 429.84 7.72 429.94 7.77C430.04 7.82 430.22 7.90 430.46 8.02C430.70 8.13 430.88 8.24 430.98 8.34C431.09 8.45 431.22 8.58 431.36 8.75C431.51 8.92 431.61 9.11 431.66 9.32C431.72 9.54 431.75 9.78 431.75 10.05C431.75 10.72 431.56 11.27 431.18 11.68C430.80 12.09 430.23 12.29 429.48 12.29C428.25 12.29 427.31 11.44 426.66 9.74ZM440.26 3.21L442.78 3.21L442.78 12.60L443.20 12.60L443.20 3.21L445.72 3.21L445.72 2.80L440.26 2.80Z"></path></g></svg>